<?xml version="1.0" standalone="no"?> <!DOCTYPE svg PUBLIC "-//W3C//DTD SVG 1.0//EN" "http://www.w3.org/TR/2001/REC-SVG-20010904/DTD/svg10.dtd" > <svg xmlns="http://www.w3.org/2000/svg" width="100%" height="100%">
<defs >
<font id="proximuslight" horiz-adv-x="580" ><font-face
    font-family="Proximus-Light"
    units-per-em="1000"
    panose-1="0 0 4 0 0 0 0 0 0 0"
    ascent="1000"
    descent="-200"
    alphabetic="0" />
<missing-glyph horiz-adv-x="600" />
<glyph unicode=" " glyph-name="space" horiz-adv-x="220" />
<glyph unicode="!" glyph-name="exclam" horiz-adv-x="273" d="M158 160H116L106 400V740H168V400L158 160ZM154 70T165 59T177 30Q177 13 166 2T137 -10Q120 -10 108 1T96 30Q96 47 108 58T137 70Q154 70 165 59Z" />
<glyph unicode="&quot;" glyph-name="quotedbl" horiz-adv-x="324" d="M114 750T121 738T128 700Q128 679 121 637T104 555H84Q75 595 68 637T60 700Q60 726 67 738T94 750Q114 750 121 738ZM250 750T257 738T264 700Q264 679 257 637T240 555H220Q211 595 204
637T196 700Q196 726 203 738T230 750Q250 750 257 738Z" />
<glyph unicode="#" glyph-name="numbersign" horiz-adv-x="746" d="M510 280H646L633 224H497L446 0H386L437 224H237L186 0H126L177 224H60L73 280H190L228 444H100L113 500H241L296 740H356L301 500H501L556 740H616L561 500H686L673 444H548L510 280ZM288 444L250
280H450L488 444H288Z" />
<glyph unicode="$" glyph-name="dollar" horiz-adv-x="641" d="M581 107T520 54T356 -8V-118H301V-10Q153 -8 60 43L81 98Q131 75 179 62T301 47V366Q209 401 160 430T89 494T67 578Q67 626 94 664T175 725T301 750V860H356V749Q408 746 451 737T523 721T559 712L546
657Q433 686 356 691V408Q445 371 492 342T560 279T581 196Q581 107 520 54ZM131 547T146 524T196 480T301 431V693Q214 692 173 660T131 582Q131 547 146 524ZM439 57T478 98T517 191Q517 225 504 249T457 295T356 344V49Q439 57 478 98Z" />
<glyph unicode="%" glyph-name="percent" horiz-adv-x="1063" d="M363 750T404 700T445 553Q445 355 282 355Q120 355 120 553Q120 650 161 700T282 750Q363 750 404 700ZM271 0L741 740H810L340 0H271ZM228 702T202 665T176 553Q176 475 201 439T282 403Q337
403 362 439T388 553Q388 629 363 665T282 702Q228 702 202 665ZM861 385T902 335T943 188Q943 -10 780 -10Q618 -10 618 188Q618 285 659 335T780 385Q861 385 902 335ZM726 337T700 300T674 188Q674 110 699 74T780 38Q835 38 860 74T886 188Q886 264 861 300T780
337Q726 337 700 300Z" />
<glyph unicode="&amp;" glyph-name="ampersand" horiz-adv-x="832" d="M619 71Q516 -10 357 -10Q231 -10 164 41T96 189Q96 258 141 311T284 424L251 459Q183 532 183 603Q183 645 205 678T268 731T362 751Q434 751 483 712T532 605Q532 565 516 535T467 478T379
417L620 161Q650 202 669 248L733 230Q706 163 664 115L772 1H685L619 71ZM247 557T300 500L340 458Q407 497 437 528T468 603Q468 642 437 668T358 695Q307 695 277 668T247 603Q247 557 300 500ZM493 46T577 115L323 383Q235 327 198 284T161 187Q161 121 209
84T362 46Q493 46 577 115Z" />
<glyph unicode="&apos;" glyph-name="quotesingle" horiz-adv-x="188" d="M75 595T68 637T60 700Q60 726 67 738T94 750Q114 750 121 738T128 700Q128 679 121 637T104 555H84Q75 595 68 637Z" />
<glyph unicode="(" glyph-name="parenleft" horiz-adv-x="342" d="M227 665T195 565T162 330Q162 195 194 95T294 -107L257 -130Q182 -39 139 67T96 330Q96 486 139 592T257 790L294 767Q227 665 195 565Z" />
<glyph unicode=")" glyph-name="parenright" horiz-adv-x="342" d="M160 699T203 593T246 330Q246 174 203 68T85 -130L48 -107Q115 -5 147 95T180 330Q180 465 148 565T48 767L85 790Q160 699 203 593Z" />
<glyph unicode="*" glyph-name="asterisk" horiz-adv-x="600" d="M275 596L270 740H330L325 596H275ZM258 549L120 594L141 650L275 596L258 549ZM325 596L459 650L480 594L342 549L325 596ZM419 427L367 396L300 522L233 396L181 427L258 549L300 525L342 549L419 427Z" />
<glyph unicode="+" glyph-name="plus" horiz-adv-x="679" d="M368 303V82H312V303H96V359H312V579H368V359H583V303H368Z" />
<glyph unicode="," glyph-name="comma" horiz-adv-x="231" d="M136 74T148 62T161 24Q161 -7 141 -45T83 -115L60 -96Q78 -79 90 -53T104 -8Q90 -4 82 7T74 33Q74 50 86 62T118 74Q136 74 148 62Z" />
<glyph unicode="-" glyph-name="hyphen" horiz-adv-x="512" d="M96 300V354H416V300H96Z" />
<glyph unicode="." glyph-name="period" horiz-adv-x="229" d="M132 74T144 62T157 32Q157 14 145 2T115 -10Q97 -10 85 2T72 32Q72 49 84 61T115 74Q132 74 144 62Z" />
<glyph unicode="/" glyph-name="slash" horiz-adv-x="578" d="M72 0L442 740H506L136 0H72Z" />
<glyph unicode="0" glyph-name="zero" horiz-adv-x="725" d="M60 750T60 370Q60 -10 362 -10Q665 -10 665 370Q665 750 362 750Q60 750 60 370ZM482 694T541 614T601 370Q601 206 542 126T362 46Q243 46 184 126T124 370Q124 534 183 614T362 694Q482 694 541 614Z" />
<glyph unicode="1" glyph-name="one" horiz-adv-x="536" d="M55 0V56H261V669L69 603L48 662L271 740H324V56H518V0H55Z" />
<glyph unicode="2" glyph-name="two" horiz-adv-x="601" d="M541 0H36V40Q36 110 96 178T266 333L309 365Q387 421 431 467T475 569Q475 629 429 661T297 694Q238 694 180 680T82 645L56 693Q170 750 296 750Q409 750 474 702T540 569Q540 521 512 478T446 401T348
324Q324 307 301 289Q289 279 283 275Q224 228 189 196T130 128T106 56H541V0Z" />
<glyph unicode="3" glyph-name="three" horiz-adv-x="596" d="M481 378T511 329T542 212Q542 110 472 50T253 -10Q112 -10 12 46L36 100Q87 76 140 61T265 46Q478 46 478 213Q478 371 266 371H147V427H231Q333 427 396 454T459 563Q459 626 413 660T279 694Q221
694 162 680T64 645L39 693Q84 717 144 733T278 750Q397 750 460 699T523 558Q523 447 419 403Q481 378 511 329Z" />
<glyph unicode="4" glyph-name="four" horiz-adv-x="683" d="M528 0H466V183H48V239L333 740H400L115 239H466V490H528V239H647V183H528V0Z" />
<glyph unicode="5" glyph-name="five" horiz-adv-x="638" d="M405 475T463 445T553 360T584 232Q584 123 513 57T294 -10Q237 -10 193 0T121 22T54 56L78 110Q186 46 305 46Q409 46 464 94T520 233Q520 323 467 371T318 419Q258 419 216 404T155 378T131 365H68L122
740H530V684H175L137 428Q180 449 223 462T325 475Q405 475 463 445Z" />
<glyph unicode="6" glyph-name="six" horiz-adv-x="658" d="M479 477T544 415T610 240Q610 165 577 109T483 21T343 -10Q195 -10 128 70T60 317Q60 490 122 620T376 750Q450 750 518 736L507 680Q439 694 381 694Q151 694 127 406Q213 477 338 477Q479 477 544
415ZM402 46T448 70T519 138T545 241Q545 422 343 422Q209 422 124 329V320Q124 178 176 112T342 46Q402 46 448 70Z" />
<glyph unicode="7" glyph-name="seven" horiz-adv-x="533" d="M509 684L153 0H80L436 684H0V740H509V684Z" />
<glyph unicode="8" glyph-name="eight" horiz-adv-x="687" d="M627 350T627 209Q627 103 554 47T344 -10Q208 -10 134 47T60 209Q60 349 191 397Q139 420 112 461T85 559Q85 650 153 700T344 750Q468 750 535 700T603 559Q603 502 576 461T496 397Q627 350 627
209ZM150 492T200 456T343 420Q436 420 487 456T538 558Q538 623 488 658T344 694Q251 694 201 659T150 558Q150 492 200 456ZM448 46T505 88T562 208Q562 286 505 328T344 370Q239 370 182 328T125 208Q125 130 182 88T344 46Q448 46 505 88Z" />
<glyph unicode="9" glyph-name="nine" horiz-adv-x="658" d="M444 750T506 696T583 569T598 391Q590 187 516 90T281 -8Q172 -8 97 18L116 75Q119 74 159 61T281 48Q401 48 459 117T530 337Q445 267 320 267Q180 267 114 328T48 500Q48 620 120 685T314 750Q444
750 506 696ZM387 323T439 346T533 414Q533 493 520 551T459 652T313 694Q214 694 164 643T113 499Q113 323 319 323Q387 323 439 346Z" />
<glyph unicode=":" glyph-name="colon" horiz-adv-x="225" d="M130 510T142 498T155 468Q155 451 143 439T113 426Q95 426 83 438T70 468Q70 485 82 497T113 510Q130 510 142 498ZM130 74T142 62T155 32Q155 14 143 2T113 -10Q95 -10 83 2T70 32Q70 49 82 61T113
74Q130 74 142 62Z" />
<glyph unicode=";" glyph-name="semicolon" horiz-adv-x="233" d="M133 510T145 498T158 468Q158 451 146 439T116 426Q98 426 86 438T73 468Q73 485 85 497T116 510Q133 510 145 498ZM136 48T148 36T161 -2Q161 -33 141 -71T83 -141L60 -122Q78 -105 90 -79T104
-34Q90 -30 82 -19T74 7Q74 24 86 36T118 48Q136 48 148 36Z" />
<glyph unicode="&lt;" glyph-name="less" horiz-adv-x="679" d="M164 331L583 159V103L96 303V359L583 559V503L164 331Z" />
<glyph unicode="=" glyph-name="equal" horiz-adv-x="739" d="M96 424V480H643V424H96ZM96 180V236H643V180H96Z" />
<glyph unicode="&gt;" glyph-name="greater" horiz-adv-x="679" d="M583 303L96 103V159L515 331L96 503V559L583 359V303Z" />
<glyph unicode="?" glyph-name="question" horiz-adv-x="592" d="M404 750T468 708T532 577Q532 523 511 486T461 428T385 382L366 372Q307 339 284 316T255 261T249 150H187Q187 232 196 275T234 349T327 415Q345 425 354 429Q394 450 416 466T453 508T468 574Q468
639 424 666T300 694Q239 694 182 680T87 645L66 694Q174 750 296 750Q404 750 468 708ZM235 70T246 59T258 30Q258 13 247 2T218 -10Q201 -10 189 1T177 30Q177 47 189 58T218 70Q235 70 246 59Z" />
<glyph unicode="@" glyph-name="at" horiz-adv-x="1121" d="M692 700T789 650T939 515T991 326Q991 226 961 152T882 39T776 0Q683 0 666 79Q612 -10 496 -10Q406 -10 358 45T310 200Q310 293 341 363T428 471T557 510Q613 510 649 487T702 424L714 510H774L725
162Q722 140 722 122Q722 82 737 66T783 50Q822 50 855 83T909 178T930 326Q930 415 887 487T760 602T561 645Q448 645 362 602T229 473T181 266Q181 141 230 54T369 -77T585 -122Q647 -122 706 -106L721 -160Q656 -177 585 -177Q432 -177 328 -121T172 34T120
266Q120 403 176 501T332 649T561 700Q692 700 789 650ZM573 44T616 81T669 190L686 315Q687 322 687 335Q687 385 653 420T556 456Q466 456 418 388T370 204Q370 126 404 85T506 44Q573 44 616 81Z" />
<glyph unicode="A" glyph-name="A" horiz-adv-x="679" d="M159 213L73 0H6L306 740H373L673 0H606L520 213H159ZM339 657L182 269H497L339 657Z" />
<glyph unicode="B" glyph-name="B" horiz-adv-x="696" d="M590 361T619 317T648 202Q648 121 617 77T526 17T369 0H96V740H342Q451 740 512 718T597 654T621 544Q621 430 527 383Q590 361 619 317ZM342 404Q452 404 504 436T557 544Q557 598 535 628T466 671T342
684H158V404H342ZM449 56T493 66T561 107T584 202Q584 282 531 315T369 348H158V56H369Q449 56 493 66Z" />
<glyph unicode="C" glyph-name="C" horiz-adv-x="665" d="M449 750T487 743T550 727T575 717L560 663Q554 665 533 672T476 687T401 694Q273 694 202 609T130 371Q130 216 203 131T403 46Q447 46 489 55T559 74T594 87L611 35Q611 34 580 22T501 0T401 -10Q297
-10 222 34T106 164T66 371Q66 552 154 651T403 750Q449 750 487 743Z" />
<glyph unicode="D" glyph-name="D" horiz-adv-x="758" d="M522 740T606 650T691 370Q691 181 607 91T352 0H96V740H352Q522 740 606 650ZM491 56T559 132T627 370Q627 532 559 608T352 684H158V56H352Q491 56 559 132Z" />
<glyph unicode="E" glyph-name="E" horiz-adv-x="633" d="M555 0H96V740H544V684H158V404H539V348H158V56H555V0Z" />
<glyph unicode="F" glyph-name="F" horiz-adv-x="595" d="M158 404H508V348H158V0H96V740H535V684H158V404Z" />
<glyph unicode="G" glyph-name="G" horiz-adv-x="737" d="M659 47Q609 24 549 7T408 -10Q66 -10 66 368Q66 560 153 655T410 750Q462 750 505 743T577 726T605 716L590 662Q584 665 560 672T496 687T411 694Q130 694 130 367Q130 204 200 125T414 46Q494 46 597
81V318H372V374H659V47Z" />
<glyph unicode="H" glyph-name="H" horiz-adv-x="736" d="M640 0H578V348H158V0H96V740H158V404H578V740H640V0Z" />
<glyph unicode="I" glyph-name="I" horiz-adv-x="254" d="M96 0V740H158V0H96Z" />
<glyph unicode="J" glyph-name="J" horiz-adv-x="482" d="M54 -2T80 -6T151 -10Q239 -10 293 14T372 92T398 238V740H336V238Q336 163 319 121T263 62T159 44Q91 44 37 57L24 5Q54 -2 80 -6Z" />
<glyph unicode="K" glyph-name="K" horiz-adv-x="624" d="M158 740V0H96V740H158ZM535 0L176 380L519 740H599L261 380L618 0H535Z" />
<glyph unicode="L" glyph-name="L" horiz-adv-x="578" d="M530 0H96V740H158V56H530V0Z" />
<glyph unicode="M" glyph-name="M" horiz-adv-x="798" d="M640 0V613L414 238H384L158 613V0H96V740H158L399 328L640 740H702V0H640Z" />
<glyph unicode="N" glyph-name="N" horiz-adv-x="736" d="M640 0H578L158 625V0H96V740H158L578 116V740H640V0Z" />
<glyph unicode="O" glyph-name="O" horiz-adv-x="816" d="M514 750T591 705T709 573T750 370Q750 253 709 167T591 36T408 -10Q302 -10 225 35T107 167T66 370Q66 487 107 573T225 704T408 750Q514 750 591 705ZM277 694T204 608T130 370Q130 218 203 132T408
46Q539 46 612 132T686 370Q686 522 613 608T408 694Q277 694 204 608Z" />
<glyph unicode="P" glyph-name="P" horiz-adv-x="668" d="M650 740T650 506Q650 272 372 272H158V0H96V740H372Q650 740 650 506ZM481 328T533 371T586 506Q586 597 534 640T372 684H158V328H372Q481 328 533 371Z" />
<glyph unicode="Q" glyph-name="Q" horiz-adv-x="817" d="M751 248T706 160T578 28L649 -135L592 -160L520 5Q469 -10 408 -10Q302 -10 225 35T107 167T66 370Q66 487 107 573T225 704T408 750Q573 750 662 651T751 370Q751 248 706 160ZM618 121T652 194T687
370Q687 525 615 609T408 694Q277 694 204 608T130 370Q130 218 203 132T408 46Q457 46 497 58L442 185L499 210L554 83Q618 121 652 194Z" />
<glyph unicode="R" glyph-name="R" horiz-adv-x="704" d="M650 432T606 379T476 306L633 0H562L410 297Q398 296 375 296H158V0H96V740H377Q511 740 580 684T650 517Q650 432 606 379ZM586 352T586 517Q586 602 535 643T377 684H158V352H377Q586 352 586 517Z" />
<glyph unicode="S" glyph-name="S" horiz-adv-x="617" d="M363 750T416 741T508 720T547 707L534 653Q525 656 490 665T403 684T301 693Q207 693 163 661T119 582Q119 544 136 520T193 474T317 418Q418 376 470 346T546 282T569 196Q569 98 496 44T305 -10Q146
-10 48 43L69 98Q121 74 173 61T305 47Q376 47 421 68T485 122T505 191Q505 229 489 255T429 305T298 363Q202 400 151 429T78 493T55 578Q55 628 84 667T169 728T307 750Q363 750 416 741Z" />
<glyph unicode="T" glyph-name="T" horiz-adv-x="627" d="M345 684V0H283V684H24V740H603V684H345Z" />
<glyph unicode="U" glyph-name="U" horiz-adv-x="732" d="M508 -10T578 56T648 258V740H586V258Q586 146 534 96T366 46Q250 46 198 96T146 258V740H84V258Q84 122 154 56T366 -10Q508 -10 578 56Z" />
<glyph unicode="V" glyph-name="V" horiz-adv-x="643" d="M356 0H287L-12 740H56L322 85L587 740H655L356 0Z" />
<glyph unicode="W" glyph-name="W" horiz-adv-x="973" d="M669 0L487 628L304 0H239L24 740H89L272 112L454 740H519L702 112L884 740H949L734 0H669Z" />
<glyph unicode="X" glyph-name="X" horiz-adv-x="610" d="M305 330L80 0H6L268 384L25 740H99L305 438L511 740H585L342 384L604 0H530L305 330Z" />
<glyph unicode="Y" glyph-name="Y" horiz-adv-x="620" d="M341 0H279V301L0 740H71L310 351L549 740H620L341 301V0Z" />
<glyph unicode="Z" glyph-name="Z" horiz-adv-x="635" d="M125 56H581V0H54V56L511 684H66V740H581V684L125 56Z" />
<glyph unicode="[" glyph-name="bracketleft" horiz-adv-x="282" d="M158 -75H246V-130H96V790H246V735H158V-75Z" />
<glyph unicode="\" glyph-name="backslash" horiz-adv-x="566" d="M494 0L124 740H60L430 0H494Z" />
<glyph unicode="]" glyph-name="bracketright" horiz-adv-x="282" d="M186 -130H36V-75H124V735H36V790H186V-130Z" />
<glyph unicode="^" glyph-name="asciicircum" horiz-adv-x="694" d="M158 228H96L316 655H378L598 228H536L347 595L158 228Z" />
<glyph unicode="_" glyph-name="underscore" horiz-adv-x="712" d="M96 -164V-110H616V-164H96Z" />
<glyph unicode="`" glyph-name="grave" horiz-adv-x="352" d="M239 560T179 600T100 655Q77 674 77 689Q77 700 86 710Q98 723 109 723Q123 723 143 706Q162 689 211 637T280 560L267 545Q239 560 179 600Z" />
<glyph unicode="a" glyph-name="a" horiz-adv-x="547" d="M534 0Q471 0 443 16T406 70Q356 -10 227 -10Q138 -10 90 28T42 141Q42 220 97 261T266 302Q335 302 403 289V314Q403 392 370 424T253 456Q197 456 166 447T104 425L85 473Q116 488 153 499T256 510Q362
510 412 467T463 320V115Q463 80 476 66T528 51H535V0H534ZM324 44T363 85T403 185V236Q330 250 265 250Q181 250 142 225T102 146Q102 96 135 70T236 44Q324 44 363 85Z" />
<glyph unicode="b" glyph-name="b" horiz-adv-x="590" d="M377 510T428 479T507 388T536 249Q536 170 508 112T429 22T308 -10Q249 -10 207 12T138 72V0H78V740H138V430Q165 468 209 489T309 510Q377 510 428 479ZM384 44T430 98T476 249Q476 346 430 401T303
456Q231 456 185 415T138 307V185Q138 151 157 119T214 65T303 44Q384 44 430 98Z" />
<glyph unicode="c" glyph-name="c" horiz-adv-x="491" d="M373 510T442 487L431 435Q394 444 365 450T302 456Q214 456 164 401T114 248Q114 153 164 99T301 44Q362 44 437 66L449 15Q429 7 390 -1T303 -10Q227 -10 171 21T85 111T54 249Q54 370 121 440T304 510Q373
510 442 487Z" />
<glyph unicode="d" glyph-name="d" horiz-adv-x="590" d="M512 0H452V72Q426 34 384 12T282 -10Q213 -10 162 21T82 111T54 249Q54 329 82 388T162 478T281 510Q336 510 380 489T452 430V740H512V0ZM338 44T375 65T432 118T452 185V307Q452 373 406 414T287 456Q207
456 161 401T114 249Q114 153 160 99T287 44Q338 44 375 65Z" />
<glyph unicode="e" glyph-name="e" horiz-adv-x="567" d="M397 510T455 449T513 270V255Q510 229 509 224H115Q120 135 166 90T294 44Q342 44 381 52T466 79L482 30Q446 13 396 2T294 -10Q178 -10 116 57T54 252Q54 377 114 443T286 510Q397 510 455 449ZM125
456T115 276H451Q449 367 409 411T284 456Q125 456 115 276Z" />
<glyph unicode="f" glyph-name="f" horiz-adv-x="356" d="M217 689T190 659T162 576V500H328V448H162V0H102V448H24V500H102V576Q102 653 147 696T264 740H344V689H264Q217 689 190 659Z" />
<glyph unicode="g" glyph-name="g" horiz-adv-x="590" d="M512 -16Q512 -200 293 -200Q234 -200 186 -188T92 -150L118 -100Q162 -125 203 -136T295 -147Q375 -147 413 -118T452 -16V72Q426 34 384 12T282 -10Q213 -10 162 21T82 111T54 249Q54 329 82 388T162
478T281 510Q336 510 380 489T452 430V510H512V-16ZM338 44T375 65T432 118T452 185V307Q452 373 406 414T287 456Q207 456 161 401T114 249Q114 153 160 99T287 44Q338 44 375 65Z" />
<glyph unicode="h" glyph-name="h" horiz-adv-x="594" d="M409 510T465 455T522 300V0H462V294Q462 371 424 413T309 456Q255 456 217 435T158 382T138 315V0H78V740H138V426Q164 465 208 487T314 510Q409 510 465 455Z" />
<glyph unicode="i" glyph-name="i" horiz-adv-x="210" d="M124 750T138 737T152 704Q152 685 138 672T105 658Q86 658 72 671T58 704Q58 723 72 736T105 750Q124 750 138 737ZM75 0V500H135V0H75Z" />
<glyph unicode="j" glyph-name="j" horiz-adv-x="191" d="M105 750T119 737T133 704Q133 685 119 672T86 658Q67 658 53 671T39 704Q39 723 53 736T86 750Q105 750 119 737ZM116 -200T-41 -200H-102V-149H-41Q12 -149 34 -125T56 -36V500H116V-36Q116 -200 -41 -200Z" />
<glyph unicode="k" glyph-name="k" horiz-adv-x="494" d="M138 0H78V740H138V0ZM149 272L380 500H461L226 272L488 0H409L149 272Z" />
<glyph unicode="l" glyph-name="l" horiz-adv-x="287" d="M132 118T143 95T176 62T239 50H263V0H239Q72 0 72 160V740H132V162Q132 118 143 95Z" />
<glyph unicode="m" glyph-name="m" horiz-adv-x="922" d="M746 510T798 455T850 300V0H790V294Q790 369 755 412T650 456Q601 456 566 435T512 382T494 315V300V0H434V294Q434 369 399 412T294 456Q245 456 210 435T156 382T138 315V0H78V500H138V429Q162 467
202 488T300 510Q363 510 408 483T475 403Q498 451 543 480T656 510Q746 510 798 455Z" />
<glyph unicode="n" glyph-name="n" horiz-adv-x="594" d="M409 510T465 455T522 300V0H462V294Q462 371 424 413T309 456Q255 456 217 435T158 382T138 315V0H78V500H138V426Q164 465 208 487T314 510Q409 510 465 455Z" />
<glyph unicode="o" glyph-name="o" horiz-adv-x="591" d="M367 510T421 477T506 385T537 250Q537 174 507 115T422 23T296 -10Q225 -10 170 23T85 115T54 250Q54 326 84 385T170 477T296 510Q367 510 421 477ZM243 456T202 430T137 357T114 250Q114 190 137 143T201
70T296 44Q349 44 390 70T454 143T477 250Q477 310 454 357T390 430T296 456Q243 456 202 430Z" />
<glyph unicode="p" glyph-name="p" horiz-adv-x="590" d="M377 510T428 479T507 388T536 249Q536 170 508 112T429 22T308 -10Q249 -10 207 12T138 72V-200H78V500H138V430Q165 468 209 489T309 510Q377 510 428 479ZM384 44T430 98T476 249Q476 346 430 401T303
456Q231 456 185 415T138 307V185Q138 151 157 119T214 65T303 44Q384 44 430 98Z" />
<glyph unicode="q" glyph-name="q" horiz-adv-x="590" d="M512 -200H452V73Q426 35 385 13T287 -10Q177 -10 116 59T54 249Q54 329 82 388T162 478T284 510Q338 510 381 489T452 429V500H512V-200ZM338 44T375 65T432 118T452 185V307Q452 373 406 414T287 456Q207
456 161 401T114 249Q114 153 160 99T287 44Q338 44 375 65Z" />
<glyph unicode="r" glyph-name="r" horiz-adv-x="384" d="M350 510T360 509L357 454Q337 456 319 456Q261 456 220 436T159 383T138 315V0H78V500H138V426Q164 465 210 487T325 510Q350 510 360 509Z" />
<glyph unicode="s" glyph-name="s" horiz-adv-x="471" d="M289 510T326 503T411 484L401 434Q393 436 362 442T297 453T232 458Q177 458 147 441T116 390Q116 366 128 351T166 323T250 288Q322 261 359 241T412 196T429 133Q429 65 377 28T236 -10Q170 -10 125
1T36 31L51 81Q98 63 141 53T236 42Q310 42 339 66T368 128Q368 152 357 168T316 201T229 238Q158 264 123 283T72 325T56 387Q56 443 104 476T237 510Q289 510 326 503Z" />
<glyph unicode="t" glyph-name="t" horiz-adv-x="365" d="M162 162Q162 105 185 79T262 52H318V0H265Q185 0 144 38T102 162V448H24V500H102V650H162V500H323V448H162V162Z" />
<glyph unicode="u" glyph-name="u" horiz-adv-x="599" d="M572 0Q508 0 481 17T447 75Q423 36 380 13T276 -10Q182 -10 127 45T72 200V500H132V206Q132 131 169 88T280 44Q332 44 369 64T426 117T445 185L446 500H505V115Q505 79 517 65T568 51H575V0H572Z" />
<glyph unicode="v" glyph-name="v" horiz-adv-x="514" d="M294 0H220L12 500H74L257 49L440 500H502L294 0Z" />
<glyph unicode="w" glyph-name="w" horiz-adv-x="788" d="M538 0L394 411L250 0H193L18 500H80L222 84L363 500H425L567 84L708 500H770L595 0H538Z" />
<glyph unicode="x" glyph-name="x" horiz-adv-x="501" d="M87 0H18L216 255L27 500H95L251 300L406 500H474L285 255L483 0H414L251 211L87 0Z" />
<glyph unicode="y" glyph-name="y" horiz-adv-x="513" d="M273 -34Q241 -115 204 -157T103 -200H73V-149H103Q143 -149 168 -121T215 -34L228 0H227L12 500H76L257 67L439 500H501L287 3L273 -34Z" />
<glyph unicode="z" glyph-name="z" horiz-adv-x="504" d="M120 52H452V0H48V52L384 448H60V500H456V448L120 52Z" />
<glyph unicode="{" glyph-name="braceleft" horiz-adv-x="350" d="M266 734Q231 734 217 722T203 677Q203 655 208 624T219 562Q225 529 230 494T236 433Q236 385 217 361T174 330Q198 324 217 300T236 227Q236 201 231 166T219 98Q213 67 208 36T203 -17Q203
-49 217 -61T266 -74H314V-130H256Q138 -130 138 -27Q138 -2 143 34T155 105Q161 137 166 168T171 220Q171 273 139 287T60 302V358Q107 358 139 372T171 440Q171 460 166 491T155 555Q149 590 144 626T138 687Q138 790 256 790H314V734H266Z" />
<glyph unicode="|" glyph-name="bar" horiz-adv-x="535" d="M240 -118V860H295V-118H240Z" />
<glyph unicode="}" glyph-name="braceright" horiz-adv-x="350" d="M212 790T212 687Q212 662 207 626T195 555Q189 523 184 492T179 440Q179 387 211 373T290 358V302Q243 302 211 288T179 220Q179 200 184 169T195 105Q201 70 206 34T212 -27Q212 -130 94 -130H36V-74H84Q119
-74 133 -62T147 -17Q147 5 142 36T131 98Q125 131 120 166T114 227Q114 275 133 299T176 330Q152 336 133 360T114 433Q114 459 119 494T131 562Q137 593 142 624T147 677Q147 709 133 721T84 734H36V790H94Q212 790 212 687Z" />
<glyph unicode="~" glyph-name="asciitilde" horiz-adv-x="600" />
</font>
</defs>
</svg>
